<svg width="130" height="26" viewBox="0 0 130 26" fill="none" xmlns="http://www.w3.org/2000/svg">
<path d="M0.0595703 6.84619H3.39502V20.4912C3.39502 21.291 3.51807 21.8491 3.76416 22.1655C4.01025 22.4731 4.37061 22.627 4.84521 22.627C5.1792 22.627 5.50439 22.5347 5.8208 22.3501C6.13721 22.1655 6.42285 21.9019 6.67773 21.5591V6.84619H10.0132V25H7.46875L7.13916 23.062H7.12598C6.8623 23.4751 6.58105 23.8223 6.28223 24.1035C5.99219 24.376 5.68457 24.5957 5.35938 24.7627C5.04297 24.9209 4.71777 25.0352 4.38379 25.1055C4.0498 25.1758 3.71582 25.2109 3.38184 25.2109C2.31836 25.2109 1.49658 24.8418 0.916504 24.1035C0.345215 23.3652 0.0595703 22.249 0.0595703 20.7549V6.84619ZM13.5068 6.84619H15.9458L16.2358 8.69189C16.605 8.00635 17.0269 7.49219 17.5015 7.14941C17.9849 6.80664 18.4771 6.63525 18.978 6.63525C19.936 6.63525 20.6436 6.92969 21.1006 7.51855C21.5576 8.10742 21.7861 8.99072 21.7861 10.1685C21.7861 10.3179 21.7729 10.498 21.7466 10.709C21.729 10.9111 21.6982 11.1265 21.6543 11.355C21.6191 11.5747 21.5708 11.7988 21.5093 12.0273C21.4565 12.2471 21.3994 12.4492 21.3379 12.6338H19.0176V10.9463C19.0176 10.5771 18.9912 10.2739 18.9385 10.0366C18.8945 9.79932 18.833 9.61035 18.7539 9.46973C18.6748 9.32031 18.5825 9.21924 18.4771 9.1665C18.3716 9.10498 18.2573 9.07422 18.1343 9.07422C17.8706 9.07422 17.6245 9.16211 17.396 9.33789C17.1763 9.50488 16.9917 9.74219 16.8423 10.0498V25H13.5068V6.84619ZM23.8955 1.01904H27.231V5.85742L27.1255 8.25684L27.1387 8.27002C27.2881 8.05908 27.4595 7.85693 27.6528 7.66357C27.855 7.47021 28.0791 7.29883 28.3252 7.14941C28.5801 6.99121 28.8569 6.86816 29.1558 6.78027C29.4634 6.69238 29.7974 6.64844 30.1577 6.64844C30.3423 6.64844 30.562 6.66602 30.8169 6.70117C31.0806 6.73633 31.3486 6.82422 31.6211 6.96484C31.9023 7.10547 32.1792 7.31641 32.4517 7.59766C32.7329 7.87012 32.979 8.24805 33.1899 8.73145C33.4097 9.21484 33.5854 9.81689 33.7173 10.5376C33.8579 11.2583 33.9282 12.1328 33.9282 13.1611V18.6587C33.9282 19.687 33.8579 20.5615 33.7173 21.2822C33.5854 22.0029 33.4097 22.6094 33.1899 23.1016C32.9702 23.585 32.7197 23.9673 32.4385 24.2485C32.1572 24.5298 31.8716 24.7407 31.5815 24.8813C31.2915 25.022 31.0103 25.1099 30.7378 25.145C30.4653 25.189 30.228 25.2109 30.0259 25.2109C29.604 25.2109 29.2217 25.1582 28.8789 25.0527C28.5449 24.9473 28.2461 24.8066 27.9824 24.6309C27.7275 24.4463 27.499 24.2397 27.2969 24.0112C27.1035 23.7827 26.9321 23.5498 26.7827 23.3125L26.5059 25H23.8955V1.01904ZM27.231 21.3218C27.3013 21.4888 27.3848 21.6514 27.4814 21.8096C27.5869 21.9678 27.7056 22.1084 27.8374 22.2314C27.9692 22.3457 28.123 22.4424 28.2988 22.5215C28.4746 22.5918 28.6724 22.627 28.8921 22.627C29.1382 22.627 29.3623 22.583 29.5645 22.4951C29.7666 22.3984 29.9424 22.2314 30.0918 21.9941C30.2412 21.748 30.3555 21.4097 30.4346 20.979C30.5225 20.5483 30.5664 19.9946 30.5664 19.3179V12.3701C30.5664 11.6934 30.5225 11.144 30.4346 10.7222C30.3555 10.2915 30.2412 9.95312 30.0918 9.70703C29.9512 9.46094 29.7798 9.29395 29.5776 9.20605C29.3755 9.11816 29.1514 9.07422 28.9053 9.07422C28.4922 9.07422 28.1494 9.19727 27.877 9.44336C27.6133 9.68066 27.3979 9.96631 27.231 10.3003V21.3218ZM39.4521 25.1978C38.8896 25.1978 38.3887 25.0879 37.9492 24.8682C37.5186 24.6396 37.1538 24.332 36.855 23.9453C36.5562 23.5586 36.3276 23.1016 36.1694 22.5742C36.02 22.0381 35.9453 21.458 35.9453 20.834C35.9453 20.0869 36.0376 19.4233 36.2222 18.8433C36.4067 18.2632 36.6748 17.7402 37.0264 17.2744C37.3867 16.8086 37.8306 16.3867 38.3579 16.0088C38.8853 15.6221 39.4961 15.2573 40.1904 14.9146C40.5244 14.7476 40.8979 14.5806 41.311 14.4136C41.7329 14.2378 42.1064 14.0884 42.4316 13.9653V11.5659C42.4316 11.2144 42.4185 10.8892 42.3921 10.5903C42.3657 10.2827 42.2998 10.019 42.1943 9.79932C42.0977 9.5708 41.9482 9.39502 41.7461 9.27197C41.5439 9.14014 41.2671 9.07422 40.9155 9.07422C40.6782 9.07422 40.4453 9.11816 40.2168 9.20605C39.9971 9.29395 39.7993 9.44336 39.6235 9.6543C39.4565 9.86523 39.3203 10.1465 39.2148 10.498C39.1182 10.8496 39.0698 11.2847 39.0698 11.8032V12.5942H36.5254C36.4463 12.2515 36.3848 11.9395 36.3408 11.6582C36.3057 11.3682 36.2881 11.0825 36.2881 10.8013C36.2881 10.1245 36.4023 9.52686 36.6309 9.0083C36.8682 8.48975 37.1934 8.05469 37.6064 7.70312C38.0283 7.35156 38.5293 7.08789 39.1094 6.91211C39.6895 6.72754 40.3267 6.63525 41.021 6.63525C41.9263 6.63525 42.6777 6.73633 43.2754 6.93848C43.873 7.13184 44.3477 7.42627 44.6992 7.82178C45.0596 8.21729 45.3101 8.71387 45.4507 9.31152C45.6001 9.90918 45.6748 10.6079 45.6748 11.4077V25H43.1963L42.959 23.4443C42.5986 23.9629 42.1152 24.3848 41.5088 24.71C40.9111 25.0352 40.2256 25.1978 39.4521 25.1978ZM40.9287 22.627C41.21 22.627 41.4824 22.5566 41.7461 22.416C42.0186 22.2666 42.2471 22.0864 42.4316 21.8755V16.1934C42.2559 16.2637 42.0581 16.3472 41.8384 16.4438C41.6187 16.5405 41.3813 16.668 41.1265 16.8262C40.8892 16.9756 40.6562 17.1558 40.4277 17.3667C40.1992 17.5776 39.9927 17.8281 39.8081 18.1182C39.6323 18.4082 39.4873 18.7378 39.373 19.1069C39.2676 19.4673 39.2148 19.8716 39.2148 20.3198C39.2148 21.0142 39.3511 21.5723 39.6235 21.9941C39.896 22.416 40.3311 22.627 40.9287 22.627ZM49.1289 6.84619H51.6997L52.0029 8.78418V8.79736C52.2666 8.38428 52.5479 8.0415 52.8467 7.76904C53.1543 7.48779 53.4707 7.26367 53.7959 7.09668C54.1211 6.92969 54.4507 6.81104 54.7847 6.74072C55.1274 6.67041 55.4658 6.63525 55.7998 6.63525C56.8633 6.63525 57.6807 7.00879 58.252 7.75586C58.832 8.49414 59.1221 9.60596 59.1221 11.0913V25H55.7866V11.21C55.7866 10.4102 55.6636 9.85645 55.4175 9.54883C55.1714 9.23242 54.811 9.07422 54.3364 9.07422C54.0024 9.07422 53.6685 9.18408 53.3345 9.40381C53.0093 9.62354 52.7192 9.92676 52.4644 10.3135V25H49.1289V6.84619ZM68.7988 9.21924H67.23V6.84619H68.7988V5.54102C68.7988 4.55664 68.8999 3.75684 69.1021 3.1416C69.3042 2.51758 69.5811 2.03418 69.9326 1.69141C70.293 1.33984 70.7104 1.10254 71.1851 0.979492C71.6685 0.856445 72.187 0.794922 72.7407 0.794922C72.8989 0.794922 73.0747 0.803711 73.2681 0.821289C73.4702 0.838867 73.668 0.869629 73.8613 0.913574C74.0635 0.94873 74.2568 0.992676 74.4414 1.04541C74.6348 1.09814 74.8062 1.16406 74.9556 1.24316V3.58984C74.5864 3.49316 74.1733 3.44482 73.7163 3.44482C73.4966 3.44482 73.2856 3.47998 73.0835 3.55029C72.8901 3.62061 72.7188 3.73926 72.5693 3.90625C72.4199 4.06445 72.3013 4.27979 72.2134 4.55225C72.1255 4.81592 72.0815 5.14551 72.0815 5.54102V6.84619H74.5996V9.21924H72.0815V25H68.7988V9.21924ZM81.0464 25.1978C80.6597 25.1978 80.2642 25.167 79.8599 25.1055C79.4644 25.0439 79.0776 24.9165 78.6997 24.7231C78.3306 24.5298 77.979 24.2529 77.645 23.8926C77.3198 23.5322 77.0342 23.0576 76.7881 22.4688C76.542 21.8799 76.3486 21.1548 76.208 20.2935C76.0674 19.4321 75.9971 18.4038 75.9971 17.2085V14.3608C75.9971 13.1831 76.0674 12.1768 76.208 11.3418C76.3574 10.498 76.5552 9.79053 76.8013 9.21924C77.0562 8.64795 77.3506 8.19531 77.6846 7.86133C78.0186 7.51855 78.3701 7.25928 78.7393 7.0835C79.1172 6.89893 79.5039 6.78027 79.8994 6.72754C80.2949 6.66602 80.6816 6.63525 81.0596 6.63525C81.4199 6.63525 81.7935 6.66162 82.1802 6.71436C82.5669 6.76709 82.9448 6.88135 83.314 7.05713C83.6831 7.22412 84.0303 7.479 84.3555 7.82178C84.6895 8.15576 84.9795 8.6084 85.2256 9.17969C85.4805 9.75098 85.6782 10.4629 85.8188 11.3154C85.9683 12.1592 86.043 13.1743 86.043 14.3608V17.2085C86.043 18.3862 85.9683 19.4014 85.8188 20.2539C85.6694 21.1064 85.4673 21.8271 85.2124 22.416C84.9575 23.0049 84.6631 23.4839 84.3291 23.853C83.9951 24.2134 83.6436 24.4946 83.2744 24.6968C82.9053 24.8989 82.5273 25.0308 82.1406 25.0923C81.7627 25.1626 81.3979 25.1978 81.0464 25.1978ZM81.0728 22.627C81.3716 22.627 81.6221 22.5522 81.8242 22.4028C82.0352 22.2446 82.2021 21.9897 82.3252 21.6382C82.457 21.2866 82.5493 20.8252 82.6021 20.2539C82.6636 19.6738 82.6943 18.9575 82.6943 18.105V13.6357C82.6943 12.7832 82.6636 12.0669 82.6021 11.4868C82.5493 10.9067 82.457 10.4409 82.3252 10.0894C82.2021 9.729 82.0352 9.46973 81.8242 9.31152C81.6221 9.15332 81.3716 9.07422 81.0728 9.07422C80.7563 9.07422 80.4883 9.15332 80.2686 9.31152C80.0576 9.46973 79.8818 9.729 79.7412 10.0894C79.6006 10.4409 79.4995 10.9067 79.438 11.4868C79.3765 12.0669 79.3457 12.7832 79.3457 13.6357V18.105C79.3457 18.9575 79.3765 19.6738 79.438 20.2539C79.4995 20.8252 79.6006 21.2866 79.7412 21.6382C79.8818 21.9897 80.0576 22.2446 80.2686 22.4028C80.4883 22.5522 80.7563 22.627 81.0728 22.627ZM88.9961 6.84619H91.4351L91.7251 8.69189C92.0942 8.00635 92.5161 7.49219 92.9907 7.14941C93.4741 6.80664 93.9663 6.63525 94.4673 6.63525C95.4253 6.63525 96.1328 6.92969 96.5898 7.51855C97.0469 8.10742 97.2754 8.99072 97.2754 10.1685C97.2754 10.3179 97.2622 10.498 97.2358 10.709C97.2183 10.9111 97.1875 11.1265 97.1436 11.355C97.1084 11.5747 97.0601 11.7988 96.9985 12.0273C96.9458 12.2471 96.8887 12.4492 96.8271 12.6338H94.5068V10.9463C94.5068 10.5771 94.4805 10.2739 94.4277 10.0366C94.3838 9.79932 94.3223 9.61035 94.2432 9.46973C94.1641 9.32031 94.0718 9.21924 93.9663 9.1665C93.8608 9.10498 93.7466 9.07422 93.6235 9.07422C93.3599 9.07422 93.1138 9.16211 92.8853 9.33789C92.6655 9.50488 92.481 9.74219 92.3315 10.0498V25H88.9961V6.84619ZM103.762 25.1978C102.979 25.1978 102.285 25.0527 101.679 24.7627C101.081 24.4727 100.576 24.02 100.163 23.4048C99.7495 22.7896 99.4375 22.0029 99.2266 21.0449C99.0156 20.0781 98.9102 18.918 98.9102 17.5645V14.1367C98.9102 12.9854 98.9937 12.001 99.1606 11.1836C99.3364 10.3574 99.5605 9.66748 99.833 9.11377C100.114 8.55127 100.435 8.10742 100.795 7.78223C101.165 7.45703 101.542 7.21094 101.929 7.04395C102.316 6.86816 102.698 6.7583 103.076 6.71436C103.463 6.66162 103.819 6.63525 104.144 6.63525C104.742 6.63525 105.317 6.72754 105.871 6.91211C106.425 7.08789 106.913 7.39551 107.334 7.83496C107.756 8.26562 108.09 8.8457 108.336 9.5752C108.591 10.3047 108.719 11.2144 108.719 12.3042C108.719 12.6733 108.706 13.0469 108.679 13.4248C108.662 13.8027 108.635 14.1763 108.6 14.5454C108.565 14.9058 108.517 15.2573 108.455 15.6001C108.402 15.9429 108.345 16.2593 108.284 16.5493H102.259V18.395C102.259 19.186 102.29 19.854 102.351 20.3989C102.413 20.9351 102.514 21.3701 102.654 21.7041C102.804 22.0293 103.001 22.2666 103.248 22.416C103.502 22.5566 103.819 22.627 104.197 22.627C104.399 22.627 104.597 22.5874 104.79 22.5083C104.983 22.4204 105.15 22.2798 105.291 22.0864C105.44 21.8931 105.559 21.6382 105.647 21.3218C105.735 20.9966 105.779 20.5967 105.779 20.1221V19.5552H108.561V20.2539C108.561 21.9766 108.147 23.2334 107.321 24.0244C106.504 24.8066 105.317 25.1978 103.762 25.1978ZM105.607 14.3081C105.616 14.2114 105.625 14.084 105.634 13.9258C105.643 13.7588 105.647 13.5874 105.647 13.4116C105.656 13.2358 105.66 13.0645 105.66 12.8975C105.66 12.7217 105.66 12.5723 105.66 12.4492C105.66 11.2539 105.52 10.3926 105.238 9.86523C104.957 9.33789 104.54 9.07422 103.986 9.07422C103.696 9.07422 103.441 9.14453 103.221 9.28516C103.001 9.41699 102.821 9.64551 102.681 9.9707C102.54 10.2871 102.435 10.709 102.364 11.2363C102.294 11.7637 102.259 12.4185 102.259 13.2007V14.3081H105.607ZM110.828 21.2031C110.828 20.8076 110.863 20.4253 110.934 20.0562C111.013 19.687 111.087 19.3926 111.158 19.1729H113.504C113.504 19.832 113.535 20.3857 113.597 20.834C113.667 21.2734 113.777 21.625 113.926 21.8887C114.076 22.1523 114.273 22.3413 114.52 22.4556C114.774 22.5698 115.082 22.627 115.442 22.627C115.943 22.627 116.308 22.4863 116.537 22.2051C116.765 21.9238 116.879 21.5986 116.879 21.2295C116.879 21.0361 116.853 20.8516 116.8 20.6758C116.748 20.5 116.673 20.3242 116.576 20.1484C116.479 19.9639 116.361 19.7793 116.22 19.5947C116.08 19.4102 115.921 19.208 115.746 18.9883L113.307 16.1143C112.99 15.7188 112.683 15.3188 112.384 14.9146C112.094 14.5015 111.834 14.0796 111.606 13.6489C111.386 13.2095 111.206 12.7524 111.065 12.2778C110.934 11.8032 110.868 11.3022 110.868 10.7749C110.868 10.0718 110.986 9.46094 111.224 8.94238C111.47 8.42383 111.795 7.99316 112.199 7.65039C112.612 7.30762 113.087 7.05273 113.623 6.88574C114.159 6.71875 114.726 6.63525 115.324 6.63525C115.983 6.63525 116.576 6.71436 117.104 6.87256C117.631 7.03076 118.083 7.26807 118.461 7.58447C118.839 7.90088 119.129 8.29639 119.332 8.771C119.534 9.23682 119.635 9.78174 119.635 10.4058C119.635 10.8276 119.595 11.2363 119.516 11.6318C119.446 12.0273 119.375 12.3657 119.305 12.647H116.998C116.989 12.0493 116.963 11.5264 116.919 11.0781C116.875 10.6299 116.792 10.2607 116.668 9.9707C116.554 9.67188 116.392 9.44775 116.181 9.29834C115.979 9.14893 115.71 9.07422 115.376 9.07422C115.086 9.07422 114.845 9.12256 114.651 9.21924C114.458 9.30713 114.3 9.42578 114.177 9.5752C114.062 9.72461 113.979 9.8916 113.926 10.0762C113.882 10.2607 113.86 10.4497 113.86 10.6431C113.86 11.0649 113.961 11.4561 114.164 11.8164C114.366 12.1768 114.634 12.5679 114.968 12.9897L117.631 16.1143C117.824 16.3516 118.048 16.6416 118.303 16.9844C118.558 17.3184 118.8 17.6919 119.028 18.105C119.257 18.5093 119.45 18.9531 119.608 19.4365C119.767 19.9199 119.846 20.4253 119.846 20.9526C119.846 21.5942 119.745 22.1787 119.542 22.7061C119.34 23.2246 119.042 23.6685 118.646 24.0376C118.25 24.4067 117.763 24.6924 117.183 24.8945C116.611 25.0967 115.957 25.1978 115.218 25.1978C114.612 25.1978 114.041 25.1318 113.504 25C112.968 24.8594 112.502 24.6353 112.107 24.3276C111.711 24.0112 111.399 23.5981 111.171 23.0884C110.942 22.5786 110.828 21.9502 110.828 21.2031ZM122.865 9.21924H121.454V6.84619H123.155L123.827 2.13965H126.2V6.84619H129.101V9.21924H126.2V20.7681C126.2 21.1636 126.235 21.4844 126.306 21.7305C126.385 21.9678 126.49 22.1567 126.622 22.2974C126.754 22.4292 126.908 22.5171 127.083 22.561C127.259 22.605 127.444 22.627 127.637 22.627C127.962 22.627 128.248 22.5874 128.494 22.5083C128.749 22.4292 128.991 22.3193 129.219 22.1787V24.0244C129.026 24.2617 128.815 24.4551 128.586 24.6045C128.367 24.7539 128.138 24.877 127.901 24.9736C127.664 25.0615 127.422 25.123 127.176 25.1582C126.93 25.1934 126.688 25.2109 126.451 25.2109C125.985 25.2109 125.537 25.1494 125.106 25.0264C124.675 24.9033 124.293 24.6704 123.959 24.3276C123.625 23.9761 123.357 23.4927 123.155 22.8774C122.961 22.2622 122.865 21.4624 122.865 20.478V9.21924Z" fill="#333333"/>
</svg>
