<svg width="83" height="70" viewBox="0 0 83 70" fill="none" xmlns="http://www.w3.org/2000/svg">
<path d="M2.125 7.79492H6.57227V25.9883C6.57227 27.0547 6.73633 27.7988 7.06445 28.2207C7.39258 28.6309 7.87305 28.8359 8.50586 28.8359C8.95117 28.8359 9.38477 28.7129 9.80664 28.4668C10.2285 28.2207 10.6094 27.8691 10.9492 27.4121V7.79492H15.3965V32H12.0039L11.5645 29.416H11.5469C11.1953 29.9668 10.8203 30.4297 10.4219 30.8047C10.0352 31.168 9.625 31.4609 9.19141 31.6836C8.76953 31.8945 8.33594 32.0469 7.89062 32.1406C7.44531 32.2344 7 32.2812 6.55469 32.2812C5.13672 32.2812 4.04102 31.7891 3.26758 30.8047C2.50586 29.8203 2.125 28.332 2.125 26.3398V7.79492ZM20.0547 7.79492H23.3066L23.6934 10.2559C24.1855 9.3418 24.748 8.65625 25.3809 8.19922C26.0254 7.74219 26.6816 7.51367 27.3496 7.51367C28.627 7.51367 29.5703 7.90625 30.1797 8.69141C30.7891 9.47656 31.0938 10.6543 31.0938 12.2246C31.0938 12.4238 31.0762 12.6641 31.041 12.9453C31.0176 13.2148 30.9766 13.502 30.918 13.8066C30.8711 14.0996 30.8066 14.3984 30.7246 14.7031C30.6543 14.9961 30.5781 15.2656 30.4961 15.5117H27.4023V13.2617C27.4023 12.7695 27.3672 12.3652 27.2969 12.0488C27.2383 11.7324 27.1562 11.4805 27.0508 11.293C26.9453 11.0938 26.8223 10.959 26.6816 10.8887C26.541 10.8066 26.3887 10.7656 26.2246 10.7656C25.873 10.7656 25.5449 10.8828 25.2402 11.1172C24.9473 11.3398 24.7012 11.6563 24.502 12.0664V32H20.0547V7.79492ZM33.9062 0.0253906H38.3535V6.47656L38.2129 9.67578L38.2305 9.69336C38.4297 9.41211 38.6582 9.14258 38.916 8.88477C39.1855 8.62695 39.4844 8.39844 39.8125 8.19922C40.1523 7.98828 40.5215 7.82422 40.9199 7.70703C41.3301 7.58984 41.7754 7.53125 42.2559 7.53125C42.502 7.53125 42.7949 7.55469 43.1348 7.60156C43.4863 7.64844 43.8438 7.76562 44.207 7.95312C44.582 8.14063 44.9512 8.42188 45.3145 8.79688C45.6895 9.16016 46.0176 9.66406 46.2988 10.3086C46.5918 10.9531 46.8262 11.7559 47.002 12.7168C47.1895 13.6777 47.2832 14.8438 47.2832 16.2148V23.5449C47.2832 24.916 47.1895 26.082 47.002 27.043C46.8262 28.0039 46.5918 28.8125 46.2988 29.4688C46.0059 30.1133 45.6719 30.623 45.2969 30.998C44.9219 31.373 44.541 31.6543 44.1543 31.8418C43.7676 32.0293 43.3926 32.1465 43.0293 32.1934C42.666 32.252 42.3496 32.2812 42.0801 32.2812C41.5176 32.2812 41.0078 32.2109 40.5508 32.0703C40.1055 31.9297 39.707 31.7422 39.3555 31.5078C39.0156 31.2617 38.7109 30.9863 38.4414 30.6816C38.1836 30.377 37.9551 30.0664 37.7559 29.75L37.3867 32H33.9062V0.0253906ZM38.3535 27.0957C38.4473 27.3184 38.5586 27.5352 38.6875 27.7461C38.8281 27.957 38.9863 28.1445 39.1621 28.3086C39.3379 28.4609 39.543 28.5898 39.7773 28.6953C40.0117 28.7891 40.2754 28.8359 40.5684 28.8359C40.8965 28.8359 41.1953 28.7773 41.4648 28.6602C41.7344 28.5312 41.9688 28.3086 42.168 27.9922C42.3672 27.6641 42.5195 27.2129 42.625 26.6387C42.7422 26.0645 42.8008 25.3262 42.8008 24.4238V15.1602C42.8008 14.2578 42.7422 13.5254 42.625 12.9629C42.5195 12.3887 42.3672 11.9375 42.168 11.6094C41.9805 11.2812 41.752 11.0586 41.4824 10.9414C41.2129 10.8242 40.9141 10.7656 40.5859 10.7656C40.0352 10.7656 39.5781 10.9297 39.2148 11.2578C38.8633 11.5742 38.5762 11.9551 38.3535 12.4004V27.0957ZM54.6484 32.2637C53.8984 32.2637 53.2305 32.1172 52.6445 31.8242C52.0703 31.5195 51.584 31.1094 51.1855 30.5938C50.7871 30.0781 50.4824 29.4688 50.2715 28.7656C50.0723 28.0508 49.9727 27.2773 49.9727 26.4453C49.9727 25.4492 50.0957 24.5645 50.3418 23.791C50.5879 23.0176 50.9453 22.3203 51.4141 21.6992C51.8945 21.0781 52.4863 20.5156 53.1895 20.0117C53.8926 19.4961 54.707 19.0098 55.6328 18.5527C56.0781 18.3301 56.5762 18.1074 57.127 17.8848C57.6895 17.6504 58.1875 17.4512 58.6211 17.2871V14.0879C58.6211 13.6191 58.6035 13.1855 58.5684 12.7871C58.5332 12.377 58.4453 12.0254 58.3047 11.7324C58.1758 11.4277 57.9766 11.1934 57.707 11.0293C57.4375 10.8535 57.0684 10.7656 56.5996 10.7656C56.2832 10.7656 55.9727 10.8242 55.668 10.9414C55.375 11.0586 55.1113 11.2578 54.877 11.5391C54.6543 11.8203 54.4727 12.1953 54.332 12.6641C54.2031 13.1328 54.1387 13.7129 54.1387 14.4043V15.459H50.7461C50.6406 15.002 50.5586 14.5859 50.5 14.2109C50.4531 13.8242 50.4297 13.4434 50.4297 13.0684C50.4297 12.166 50.582 11.3691 50.8867 10.6777C51.2031 9.98633 51.6367 9.40625 52.1875 8.9375C52.75 8.46875 53.418 8.11719 54.1914 7.88281C54.9648 7.63672 55.8145 7.51367 56.7402 7.51367C57.9473 7.51367 58.9492 7.64844 59.7461 7.91797C60.543 8.17578 61.1758 8.56836 61.6445 9.0957C62.125 9.62305 62.459 10.2852 62.6465 11.082C62.8457 11.8789 62.9453 12.8105 62.9453 13.877V32H59.6406L59.3242 29.9258C58.8438 30.6172 58.1992 31.1797 57.3906 31.6133C56.5938 32.0469 55.6797 32.2637 54.6484 32.2637ZM56.6172 28.8359C56.9922 28.8359 57.3555 28.7422 57.707 28.5547C58.0703 28.3555 58.375 28.1152 58.6211 27.834V20.2578C58.3867 20.3516 58.123 20.4629 57.8301 20.5918C57.5371 20.7207 57.2207 20.8906 56.8809 21.1016C56.5645 21.3008 56.2539 21.541 55.9492 21.8223C55.6445 22.1035 55.3691 22.4375 55.123 22.8242C54.8887 23.2109 54.6953 23.6504 54.543 24.1426C54.4023 24.623 54.332 25.1621 54.332 25.7598C54.332 26.6855 54.5137 27.4297 54.877 27.9922C55.2402 28.5547 55.8203 28.8359 56.6172 28.8359ZM67.5508 7.79492H70.9785L71.3828 10.3789V10.3965C71.7344 9.8457 72.1094 9.38867 72.5078 9.02539C72.918 8.65039 73.3398 8.35156 73.7734 8.12891C74.207 7.90625 74.6465 7.74805 75.0918 7.6543C75.5488 7.56055 76 7.51367 76.4453 7.51367C77.8633 7.51367 78.9531 8.01172 79.7148 9.00781C80.4883 9.99219 80.875 11.4746 80.875 13.4551V32H76.4277V13.6133C76.4277 12.5469 76.2637 11.8086 75.9355 11.3984C75.6074 10.9766 75.127 10.7656 74.4941 10.7656C74.0488 10.7656 73.6035 10.9121 73.1582 11.2051C72.7246 11.498 72.3379 11.9023 71.998 12.418V32H67.5508V7.79492ZM2.35352 47.959H0.261719V44.7949H2.35352V43.0547C2.35352 41.7422 2.48828 40.6758 2.75781 39.8555C3.02734 39.0234 3.39648 38.3789 3.86523 37.9219C4.3457 37.4531 4.90234 37.1367 5.53516 36.9727C6.17969 36.8086 6.87109 36.7266 7.60938 36.7266C7.82031 36.7266 8.05469 36.7383 8.3125 36.7617C8.58203 36.7852 8.8457 36.8262 9.10352 36.8848C9.37305 36.9316 9.63086 36.9902 9.87695 37.0605C10.1348 37.1309 10.3633 37.2188 10.5625 37.3242V40.4531C10.0703 40.3242 9.51953 40.2598 8.91016 40.2598C8.61719 40.2598 8.33594 40.3066 8.06641 40.4004C7.80859 40.4941 7.58008 40.6523 7.38086 40.875C7.18164 41.0859 7.02344 41.373 6.90625 41.7363C6.78906 42.0879 6.73047 42.5273 6.73047 43.0547V44.7949H10.0879V47.959H6.73047V69H2.35352V47.959ZM18.6836 69.2637C18.168 69.2637 17.6406 69.2227 17.1016 69.1406C16.5742 69.0586 16.0586 68.8887 15.5547 68.6309C15.0625 68.373 14.5938 68.0039 14.1484 67.5234C13.7148 67.043 13.334 66.4102 13.0059 65.625C12.6777 64.8398 12.4199 63.873 12.2324 62.7246C12.0449 61.5762 11.9512 60.2051 11.9512 58.6113V54.8145C11.9512 53.2441 12.0449 51.9023 12.2324 50.7891C12.4316 49.6641 12.6953 48.7207 13.0234 47.959C13.3633 47.1973 13.7559 46.5938 14.2012 46.1484C14.6465 45.6914 15.1152 45.3457 15.6074 45.1113C16.1113 44.8652 16.627 44.707 17.1543 44.6367C17.6816 44.5547 18.1973 44.5137 18.7012 44.5137C19.1816 44.5137 19.6797 44.5488 20.1953 44.6191C20.7109 44.6895 21.2148 44.8418 21.707 45.0762C22.1992 45.2988 22.6621 45.6387 23.0957 46.0957C23.541 46.541 23.9277 47.1445 24.2559 47.9062C24.5957 48.668 24.8594 49.6172 25.0469 50.7539C25.2461 51.8789 25.3457 53.2324 25.3457 54.8145V58.6113C25.3457 60.1816 25.2461 61.5352 25.0469 62.6719C24.8477 63.8086 24.5781 64.7695 24.2383 65.5547C23.8984 66.3398 23.5059 66.9785 23.0605 67.4707C22.6152 67.9512 22.1465 68.3262 21.6543 68.5957C21.1621 68.8652 20.6582 69.041 20.1426 69.123C19.6387 69.2168 19.1523 69.2637 18.6836 69.2637ZM18.7188 65.8359C19.1172 65.8359 19.4512 65.7363 19.7207 65.5371C20.002 65.3262 20.2246 64.9863 20.3887 64.5176C20.5645 64.0488 20.6875 63.4336 20.7578 62.6719C20.8398 61.8984 20.8809 60.9434 20.8809 59.8066V53.8477C20.8809 52.7109 20.8398 51.7559 20.7578 50.9824C20.6875 50.209 20.5645 49.5879 20.3887 49.1191C20.2246 48.6387 20.002 48.293 19.7207 48.082C19.4512 47.8711 19.1172 47.7656 18.7188 47.7656C18.2969 47.7656 17.9395 47.8711 17.6465 48.082C17.3652 48.293 17.1309 48.6387 16.9434 49.1191C16.7559 49.5879 16.6211 50.209 16.5391 50.9824C16.457 51.7559 16.416 52.7109 16.416 53.8477V59.8066C16.416 60.9434 16.457 61.8984 16.5391 62.6719C16.6211 63.4336 16.7559 64.0488 16.9434 64.5176C17.1309 64.9863 17.3652 65.3262 17.6465 65.5371C17.9395 65.7363 18.2969 65.8359 18.7188 65.8359ZM29.2832 44.7949H32.5352L32.9219 47.2559C33.4141 46.3418 33.9766 45.6562 34.6094 45.1992C35.2539 44.7422 35.9102 44.5137 36.5781 44.5137C37.8555 44.5137 38.7988 44.9062 39.4082 45.6914C40.0176 46.4766 40.3223 47.6543 40.3223 49.2246C40.3223 49.4238 40.3047 49.6641 40.2695 49.9453C40.2461 50.2148 40.2051 50.502 40.1465 50.8066C40.0996 51.0996 40.0352 51.3984 39.9531 51.7031C39.8828 51.9961 39.8066 52.2656 39.7246 52.5117H36.6309V50.2617C36.6309 49.7695 36.5957 49.3652 36.5254 49.0488C36.4668 48.7324 36.3848 48.4805 36.2793 48.293C36.1738 48.0938 36.0508 47.959 35.9102 47.8887C35.7695 47.8066 35.6172 47.7656 35.4531 47.7656C35.1016 47.7656 34.7734 47.8828 34.4688 48.1172C34.1758 48.3398 33.9297 48.6562 33.7305 49.0664V69H29.2832V44.7949ZM48.9707 69.2637C47.9277 69.2637 47.002 69.0703 46.1934 68.6836C45.3965 68.2969 44.7227 67.6934 44.1719 66.873C43.6211 66.0527 43.2051 65.0039 42.9238 63.7266C42.6426 62.4375 42.502 60.8906 42.502 59.0859V54.5156C42.502 52.9805 42.6133 51.668 42.8359 50.5781C43.0703 49.4766 43.3691 48.5566 43.7324 47.8184C44.1074 47.0684 44.5352 46.4766 45.0156 46.043C45.5078 45.6094 46.0117 45.2812 46.5273 45.0586C47.043 44.8242 47.5527 44.6777 48.0566 44.6191C48.5723 44.5488 49.0469 44.5137 49.4805 44.5137C50.2773 44.5137 51.0449 44.6367 51.7832 44.8828C52.5215 45.1172 53.1719 45.5273 53.7344 46.1133C54.2969 46.6875 54.7422 47.4609 55.0703 48.4336C55.4102 49.4062 55.5801 50.6191 55.5801 52.0723C55.5801 52.5645 55.5625 53.0625 55.5273 53.5664C55.5039 54.0703 55.4688 54.5684 55.4219 55.0605C55.375 55.541 55.3105 56.0098 55.2285 56.4668C55.1582 56.9238 55.082 57.3457 55 57.7324H46.9668V60.1934C46.9668 61.248 47.0078 62.1387 47.0898 62.8652C47.1719 63.5801 47.3066 64.1602 47.4941 64.6055C47.6934 65.0391 47.957 65.3555 48.2852 65.5547C48.625 65.7422 49.0469 65.8359 49.5508 65.8359C49.8203 65.8359 50.084 65.7832 50.3418 65.6777C50.5996 65.5605 50.8223 65.373 51.0098 65.1152C51.209 64.8574 51.3672 64.5176 51.4844 64.0957C51.6016 63.6621 51.6602 63.1289 51.6602 62.4961V61.7402H55.3691V62.6719C55.3691 64.9688 54.8184 66.6445 53.7168 67.6992C52.627 68.7422 51.0449 69.2637 48.9707 69.2637ZM51.4316 54.7441C51.4434 54.6152 51.4551 54.4453 51.4668 54.2344C51.4785 54.0117 51.4844 53.7832 51.4844 53.5488C51.4961 53.3145 51.502 53.0859 51.502 52.8633C51.502 52.6289 51.502 52.4297 51.502 52.2656C51.502 50.6719 51.3145 49.5234 50.9395 48.8203C50.5645 48.1172 50.0078 47.7656 49.2695 47.7656C48.8828 47.7656 48.543 47.8594 48.25 48.0469C47.957 48.2227 47.7168 48.5273 47.5293 48.9609C47.3418 49.3828 47.2012 49.9453 47.1074 50.6484C47.0137 51.3516 46.9668 52.2246 46.9668 53.2676V54.7441H51.4316ZM58.3926 63.9375C58.3926 63.4102 58.4395 62.9004 58.5332 62.4082C58.6387 61.916 58.7383 61.5234 58.832 61.2305H61.9609C61.9609 62.1094 62.002 62.8477 62.084 63.4453C62.1777 64.0312 62.3242 64.5 62.5234 64.8516C62.7227 65.2031 62.9863 65.4551 63.3145 65.6074C63.6543 65.7598 64.0645 65.8359 64.5449 65.8359C65.2129 65.8359 65.6992 65.6484 66.0039 65.2734C66.3086 64.8984 66.4609 64.4648 66.4609 63.9727C66.4609 63.7148 66.4258 63.4688 66.3555 63.2344C66.2852 63 66.1855 62.7656 66.0566 62.5312C65.9277 62.2852 65.7695 62.0391 65.582 61.793C65.3945 61.5469 65.1836 61.2773 64.9492 60.9844L61.6973 57.1523C61.2754 56.625 60.8652 56.0918 60.4668 55.5527C60.0801 55.002 59.7344 54.4395 59.4297 53.8652C59.1367 53.2793 58.8965 52.6699 58.709 52.0371C58.5332 51.4043 58.4453 50.7363 58.4453 50.0332C58.4453 49.0957 58.6035 48.2812 58.9199 47.5898C59.248 46.8984 59.6816 46.3242 60.2207 45.8672C60.7715 45.4102 61.4043 45.0703 62.1191 44.8477C62.834 44.625 63.5898 44.5137 64.3867 44.5137C65.2656 44.5137 66.0566 44.6191 66.7598 44.8301C67.4629 45.041 68.0664 45.3574 68.5703 45.7793C69.0742 46.2012 69.4609 46.7285 69.7305 47.3613C70 47.9824 70.1348 48.709 70.1348 49.541C70.1348 50.1035 70.082 50.6484 69.9766 51.1758C69.8828 51.7031 69.7891 52.1543 69.6953 52.5293H66.6191C66.6074 51.7324 66.5723 51.0352 66.5137 50.4375C66.4551 49.8398 66.3438 49.3477 66.1797 48.9609C66.0273 48.5625 65.8105 48.2637 65.5293 48.0645C65.2598 47.8652 64.9023 47.7656 64.457 47.7656C64.0703 47.7656 63.748 47.8301 63.4902 47.959C63.2324 48.0762 63.0215 48.2344 62.8574 48.4336C62.7051 48.6328 62.5938 48.8555 62.5234 49.1016C62.4648 49.3477 62.4355 49.5996 62.4355 49.8574C62.4355 50.4199 62.5703 50.9414 62.8398 51.4219C63.1094 51.9023 63.4668 52.4238 63.9121 52.9863L67.4629 57.1523C67.7207 57.4688 68.0195 57.8555 68.3594 58.3125C68.6992 58.7578 69.0215 59.2559 69.3262 59.8066C69.6309 60.3457 69.8887 60.9375 70.0996 61.582C70.3105 62.2266 70.416 62.9004 70.416 63.6035C70.416 64.459 70.2812 65.2383 70.0117 65.9414C69.7422 66.6328 69.3438 67.2246 68.8164 67.7168C68.2891 68.209 67.6387 68.5898 66.8652 68.8594C66.1035 69.1289 65.2305 69.2637 64.2461 69.2637C63.4375 69.2637 62.6758 69.1758 61.9609 69C61.2461 68.8125 60.625 68.5137 60.0977 68.1035C59.5703 67.6816 59.1543 67.1309 58.8496 66.4512C58.5449 65.7715 58.3926 64.9336 58.3926 63.9375ZM74.4414 47.959H72.5605V44.7949H74.8281L75.7246 38.5195H78.8887V44.7949H82.7559V47.959H78.8887V63.3574C78.8887 63.8848 78.9355 64.3125 79.0293 64.6406C79.1348 64.957 79.2754 65.209 79.4512 65.3965C79.627 65.5723 79.832 65.6895 80.0664 65.748C80.3008 65.8066 80.5469 65.8359 80.8047 65.8359C81.2383 65.8359 81.6191 65.7832 81.9473 65.6777C82.2871 65.5723 82.6094 65.4258 82.9141 65.2383V67.6992C82.6562 68.0156 82.375 68.2734 82.0703 68.4727C81.7773 68.6719 81.4727 68.8359 81.1562 68.9648C80.8398 69.082 80.5176 69.1641 80.1895 69.2109C79.8613 69.2578 79.5391 69.2812 79.2227 69.2812C78.6016 69.2812 78.0039 69.1992 77.4297 69.0352C76.8555 68.8711 76.3457 68.5605 75.9004 68.1035C75.4551 67.6348 75.0977 66.9902 74.8281 66.1699C74.5703 65.3496 74.4414 64.2832 74.4414 62.9707V47.959Z" fill="#333333"/>
</svg>
